# xmcd
#
# Track frame offsets:
#	150
#	14343
#	29083
#	46276
#	63865
#	77976
#	91837
#	108190
#	123443
#	138231
#	151052
#	169007
#	186332
#	200967
#	215578
#	233977
#	245482
#	257970
#
# Disc length: 3990 seconds
#
# Revision: 1
# Processed by: cddbd v1.5.2PL0 Copyright (c) Steve Scherf et al.
# Submitted via: audiograbber 1.83.01
#
DISCID=fe0f9412
DTITLE=Fastnacht-Stimmung - Karneval
DYEAR=1996
DGENRE=Karneval
TTITLE0=Las Mostazas - Der Seuersong
TTITLE1=Lenni - Mädchen aus dem Kohlenpott
TTITLE2=Medium Terzett - Der Eiermann
TTITLE3=Ludwig Sebus - Stimm ein
TTITLE4=John and Ron - De Trumm
TTITLE5=Ulli Bastin - Festa Mexicana
TTITLE6=Will - Oberkante - Unterlippe
TTITLE7=Die 3 Colonias - Die Hits der 3 Colonias
TTITLE8=Patty Rayn - Das Matterhorn
TTITLE9=Die 5 Fidelitas - Jedes Jahr ein Kind
TTITLE10=De Vagabunde - Loß mer jet singe
TTITLE11=Tonia feat.Kurti - Antonia.. ich bin viel schöner
TTITLE12=Joe and die party Singers - Wir lieben unsere Wirtin
TTITLE13=Die 3 Besoffskis - Ho`mir ma ne Flasche Bier
TTITLE14=Tonia feat. Holiday - 20 Zentimeter
TTITLE15=Christian Walhter - Am Rosenmontag bin ich geboren
TTITLE16=Joe Raphael - Unser Wirt ist spitze
TTITLE17=Party Singers - Einmal am Rhein
EXTD=
EXTT0=
EXTT1=
EXTT2=
EXTT3=
EXTT4=
EXTT5=
EXTT6=
EXTT7=
EXTT8=
EXTT9=
EXTT10=
EXTT11=
EXTT12=
EXTT13=
EXTT14=
EXTT15=
EXTT16=
EXTT17=
PLAYORDER=
